<?xml version="1.0" encoding="iso-8859-1"?>
<!-- Generator: Adobe Illustrator 19.0.0, SVG Export Plug-In . SVG Version: 6.00 Build 0)  -->
<svg version="1.1" id="Capa_1" xmlns="http://www.w3.org/2000/svg" xmlns:xlink="http://www.w3.org/1999/xlink" x="0px" y="0px"
	 viewBox="0 0 512.017 512.017" style="enable-background:new 0 0 512.017 512.017;" xml:space="preserve">
<g transform="translate(-1 -1)">
	<g>
		<g>
			<path d="M234.244,355.704c0.913-0.708,1.777-1.476,2.588-2.298c15.746-15.75,11.474-45.667-9.535-66.684
				c-21.017-21.013-50.93-25.272-66.693-9.526l-0.009,0.009c-0.838,0.822-1.618,1.701-2.333,2.632
				c0.114,5.088,8.904,22.978,30.921,45C211.052,346.699,228.832,355.511,234.244,355.704z"/>
			<path d="M31.49,421.897c-5.552-8.79-9.818-18.329-12.669-28.327L6.279,406.112c-4.765,4.803-6.471,11.853-4.43,18.303
				c2.419,7.886,5.892,15.408,10.325,22.364c14.182,22.071,32.942,40.837,55.009,55.027c6.975,4.445,14.516,7.931,22.421,10.364
				c6.449,2.04,13.497,0.334,18.298-4.43l12.545-12.546c-10.019-2.86-19.578-7.138-28.387-12.704
				C67.749,466.881,47.089,446.214,31.49,421.897z"/>
			<path d="M151.077,362.941c-31.187-30.618-58.937-64.549-82.759-101.191l-6.548,58.963c-2.577,21.837,2.33,43.902,13.921,62.587
				c14.207,22.056,32.969,40.817,55.027,55.022c18.676,11.615,40.749,16.526,62.588,13.925l58.981-6.549
				C215.637,421.881,181.699,394.131,151.077,362.941z"/>
			<path d="M60.516,392.919c-5.536-8.818-9.797-18.374-12.658-28.386l-14.123,14.123c2.054,11.952,6.448,23.381,12.93,33.631
				c14.179,22.074,32.939,40.84,55.009,55.027c10.265,6.498,21.711,10.905,33.683,12.968l14.08-14.081
				c-9.996-2.878-19.535-7.155-28.333-12.703C96.807,437.871,76.146,417.213,60.516,392.919z"/>
			<path d="M176.481,337.538c-1.289-1.289-2.584-2.622-3.877-3.982c-32.752-32.304-61.376-68.541-85.219-107.882
				c-8.867-14.406-15.345-30.151-19.184-46.626l-6.053,6.051C49.2,198.05,82.358,268.818,163.779,350.239
				c81.439,81.443,152.193,114.561,165.141,101.627l5.982-5.984c-16.446-3.89-32.163-10.39-46.553-19.253
				C247.434,401.795,209.843,371.857,176.481,337.538z"/>
			<path d="M96.27,156.971c-3.148-0.275-6.278,0.702-8.711,2.719c-5.447,5.443-2.789,25.202,15.421,57.07
				c11.459,19.513,24.438,38.092,38.814,55.567c0.645-1.749,1.65-3.344,2.948-4.681c0.24-0.177,0.489-0.342,0.746-0.493
				c0.76-0.885,1.517-1.768,2.421-2.669c22.755-22.75,64.071-18.469,92.088,9.535c28.018,28.022,32.289,69.333,9.526,92.096
				c-0.919,0.919-1.797,1.672-2.679,2.428c-0.157,0.266-0.329,0.522-0.514,0.769c-1.33,1.279-2.909,2.269-4.639,2.908
				c17.474,14.377,36.055,27.355,55.569,38.811c31.851,18.202,51.596,20.864,57.061,15.425
				c12.947-12.952-20.202-83.724-101.623-165.14C182.674,191.296,120.534,156.972,96.27,156.971z"/>
			<path d="M252.525,1v35.93c123.977,0.108,224.453,100.585,224.561,224.561h35.93C512.849,117.695,396.321,1.167,252.525,1z"/>
			<path d="M252.525,72.86v35.93c84.285,0.12,152.582,68.417,152.702,152.702h35.93C441.042,157.36,356.656,72.974,252.525,72.86z"
				/>
			<path d="M252.525,144.719v35.93c44.627,0.05,80.792,36.215,80.842,80.842h35.93C369.224,197.03,316.986,144.792,252.525,144.719z
				"/>
		</g>
	</g>
</g>
<g>
</g>
<g>
</g>
<g>
</g>
<g>
</g>
<g>
</g>
<g>
</g>
<g>
</g>
<g>
</g>
<g>
</g>
<g>
</g>
<g>
</g>
<g>
</g>
<g>
</g>
<g>
</g>
<g>
</g>
</svg>
