<svg height="512pt" viewBox="0 -41 512.00001 512" width="512pt" xmlns="http://www.w3.org/2000/svg"><path d="m311.71875 2.140625c-4.753906-2.792969-10.632812-2.855469-15.445312-.167969l-178.785157 99.796875h-101.941406c-8.585937 0-15.546875 6.960938-15.546875 15.546875v195.035156c0 8.585938 6.960938 15.546876 15.546875 15.546876h101.941406l178.78125 99.796874c2.359375 1.316407 4.96875 1.972657 7.578125 1.972657 2.722656 0 5.445313-.714844 7.871094-2.140625 4.757812-2.789063 7.675781-7.890625 7.675781-13.40625v-398.574219c0-5.511719-2.917969-10.613281-7.675781-13.40625zm-280.625 130.722656h74.894531v163.941407h-74.894531zm257.207031 254.773438-151.21875-84.410157v-176.785156l151.21875-84.410156zm0 0"/><path d="m389.902344 128.535156c-6.074219-6.070312-15.917969-6.070312-21.988282 0-6.070312 6.070313-6.070312 15.914063 0 21.988282 35.460938 35.460937 35.460938 93.160156 0 128.625-6.070312 6.070312-6.070312 15.914062 0 21.984374 3.035157 3.035157 7.015626 4.554688 10.992188 4.554688 3.980469 0 7.957031-1.519531 10.992188-4.554688 47.585937-47.585937 47.585937-125.011718.003906-172.597656zm0 0"/><path d="m450.960938 67.476562c-6.070313-6.074218-15.914063-6.074218-21.984376 0-6.074218 6.070313-6.074218 15.914063 0 21.984376 33.488282 33.488281 51.929688 78.011718 51.929688 125.371093 0 47.363281-18.441406 91.886719-51.929688 125.375-6.070312 6.070313-6.070312 15.914063 0 21.984375 3.035157 3.035156 7.015626 4.554688 10.992188 4.554688s7.957031-1.515625 10.992188-4.554688c39.363281-39.359375 61.039062-91.691406 61.039062-147.359375 0-55.664062-21.675781-107.996093-61.039062-147.355469zm0 0"/></svg>